<mxfile host="app.diagrams.net" modified="2020-12-12T21:10:37.708Z" agent="5.0 (Windows NT 10.0; Win64; x64) AppleWebKit/537.36 (KHTML, like Gecko) Chrome/87.0.4280.88 Safari/537.36" etag="kGd7VrEyjp8jbB9x9nRt" version="14.0.1" type="github">
  <diagram id="N81xWQBj_umGSdQoMemF" name="Page-1">
    <mxGraphModel dx="3390" dy="850" grid="1" gridSize="10" guides="1" tooltips="1" connect="1" arrows="1" fold="1" page="1" pageScale="1" pageWidth="827" pageHeight="1169" math="0" shadow="0">
      <root>
        <mxCell id="0" />
        <mxCell id="1" parent="0" />
        <mxCell id="_1Sm_uHplX-s4dHi7Z4N-24" value="" style="whiteSpace=wrap;html=1;shape=mxgraph.basic.document" parent="1" vertex="1">
          <mxGeometry x="-695" y="510" width="65" height="70" as="geometry" />
        </mxCell>
        <mxCell id="_1Sm_uHplX-s4dHi7Z4N-15" value="" style="whiteSpace=wrap;html=1;shape=mxgraph.basic.document" parent="1" vertex="1">
          <mxGeometry x="-680" y="515" width="70" height="70" as="geometry" />
        </mxCell>
        <mxCell id="_1Sm_uHplX-s4dHi7Z4N-23" value="" style="whiteSpace=wrap;html=1;shape=mxgraph.basic.document" parent="1" vertex="1">
          <mxGeometry x="-630" y="515" width="70" height="70" as="geometry" />
        </mxCell>
        <mxCell id="_1Sm_uHplX-s4dHi7Z4N-14" value="" style="whiteSpace=wrap;html=1;shape=mxgraph.basic.document" parent="1" vertex="1">
          <mxGeometry x="-760" y="515" width="70" height="70" as="geometry" />
        </mxCell>
        <mxCell id="_1Sm_uHplX-s4dHi7Z4N-1" value="&lt;b&gt;BASE DE DATOS&lt;br&gt;(BDD)&lt;br&gt;&lt;/b&gt;" style="shape=cylinder3;whiteSpace=wrap;html=1;boundedLbl=1;backgroundOutline=1;size=15;" parent="1" vertex="1">
          <mxGeometry x="-10" y="70" width="180" height="180" as="geometry" />
        </mxCell>
        <mxCell id="_1Sm_uHplX-s4dHi7Z4N-4" value="" style="strokeWidth=2;html=1;shape=mxgraph.flowchart.extract_or_measurement;whiteSpace=wrap;" parent="1" vertex="1">
          <mxGeometry x="-850" y="190" width="760" height="410" as="geometry" />
        </mxCell>
        <mxCell id="_1Sm_uHplX-s4dHi7Z4N-11" value="" style="shape=note;whiteSpace=wrap;html=1;backgroundOutline=1;darkOpacity=0.05;" parent="1" vertex="1">
          <mxGeometry x="-493" y="170" width="80" height="100" as="geometry" />
        </mxCell>
        <mxCell id="_1Sm_uHplX-s4dHi7Z4N-7" value="&lt;div&gt;&lt;b&gt;FICHERO DE DATOS&lt;/b&gt;&lt;/div&gt;&lt;div&gt;&lt;b&gt;Como norma el archivo primario va con extensiÃ³n: .mdf&lt;/b&gt;&lt;/div&gt;&lt;b&gt;&lt;div style=&quot;text-align: left&quot;&gt;&lt;b&gt;Archivos secundarios con extension: .ldf&lt;/b&gt;&lt;/div&gt;&lt;/b&gt;&amp;nbsp;" style="rounded=1;whiteSpace=wrap;html=1;" parent="1" vertex="1">
          <mxGeometry x="-470" y="210" width="330" height="60" as="geometry" />
        </mxCell>
        <mxCell id="_1Sm_uHplX-s4dHi7Z4N-21" value="8Kb" style="whiteSpace=wrap;html=1;shape=mxgraph.basic.document" parent="1" vertex="1">
          <mxGeometry x="-710" y="520" width="70" height="70" as="geometry" />
        </mxCell>
        <mxCell id="_1Sm_uHplX-s4dHi7Z4N-25" value="8Kb" style="whiteSpace=wrap;html=1;shape=mxgraph.basic.document" parent="1" vertex="1">
          <mxGeometry x="-790" y="520" width="70" height="70" as="geometry" />
        </mxCell>
        <mxCell id="_1Sm_uHplX-s4dHi7Z4N-26" value="8Kb" style="whiteSpace=wrap;html=1;shape=mxgraph.basic.document" parent="1" vertex="1">
          <mxGeometry x="-630" y="520" width="70" height="70" as="geometry" />
        </mxCell>
        <mxCell id="_1Sm_uHplX-s4dHi7Z4N-27" value="8Kb" style="whiteSpace=wrap;html=1;shape=mxgraph.basic.document" parent="1" vertex="1">
          <mxGeometry x="-550" y="520" width="70" height="70" as="geometry" />
        </mxCell>
        <mxCell id="_1Sm_uHplX-s4dHi7Z4N-28" value="8Kb" style="whiteSpace=wrap;html=1;shape=mxgraph.basic.document" parent="1" vertex="1">
          <mxGeometry x="-470" y="520" width="70" height="70" as="geometry" />
        </mxCell>
        <mxCell id="_1Sm_uHplX-s4dHi7Z4N-29" value="8Kb" style="whiteSpace=wrap;html=1;shape=mxgraph.basic.document" parent="1" vertex="1">
          <mxGeometry x="-390" y="520" width="70" height="70" as="geometry" />
        </mxCell>
        <mxCell id="_1Sm_uHplX-s4dHi7Z4N-30" value="8kb" style="whiteSpace=wrap;html=1;shape=mxgraph.basic.document" parent="1" vertex="1">
          <mxGeometry x="-310" y="520" width="70" height="70" as="geometry" />
        </mxCell>
        <mxCell id="_1Sm_uHplX-s4dHi7Z4N-31" value="8Kb" style="whiteSpace=wrap;html=1;shape=mxgraph.basic.document" parent="1" vertex="1">
          <mxGeometry x="-220" y="520" width="70" height="70" as="geometry" />
        </mxCell>
        <mxCell id="_1Sm_uHplX-s4dHi7Z4N-33" value="" style="shape=note;whiteSpace=wrap;html=1;backgroundOutline=1;darkOpacity=0.05;" parent="1" vertex="1">
          <mxGeometry x="490" y="170" width="80" height="100" as="geometry" />
        </mxCell>
        <mxCell id="_1Sm_uHplX-s4dHi7Z4N-34" value="&lt;div&gt;&lt;b&gt;TRANSACCIONES&amp;nbsp;&lt;/b&gt;&lt;/div&gt;&lt;div&gt;&lt;b style=&quot;text-align: left&quot;&gt;Archivos de registro va con extension: .ldf&lt;/b&gt;&lt;br&gt;&lt;/div&gt;&amp;nbsp;" style="rounded=1;whiteSpace=wrap;html=1;" parent="1" vertex="1">
          <mxGeometry x="290" y="220" width="260" height="60" as="geometry" />
        </mxCell>
        <mxCell id="_1Sm_uHplX-s4dHi7Z4N-38" value="&lt;b&gt;&lt;u&gt;TABLAS E INDICES&lt;/u&gt;&lt;/b&gt;" style="line;strokeWidth=2;html=1;" parent="1" vertex="1">
          <mxGeometry x="-720" y="460" width="470" height="10" as="geometry" />
        </mxCell>
        <mxCell id="_1Sm_uHplX-s4dHi7Z4N-39" value="" style="shape=flexArrow;endArrow=classic;html=1;exitX=-0.014;exitY=0.379;exitDx=0;exitDy=0;exitPerimeter=0;entryX=1;entryY=0;entryDx=0;entryDy=0;labelBackgroundColor=#B266FF;labelBorderColor=#000000;" parent="1" source="_1Sm_uHplX-s4dHi7Z4N-1" target="_1Sm_uHplX-s4dHi7Z4N-7" edge="1">
          <mxGeometry width="50" height="50" relative="1" as="geometry">
            <mxPoint x="-170" y="280" as="sourcePoint" />
            <mxPoint x="-120" y="230" as="targetPoint" />
          </mxGeometry>
        </mxCell>
        <mxCell id="_1Sm_uHplX-s4dHi7Z4N-40" value="" style="shape=flexArrow;endArrow=classic;html=1;" parent="1" edge="1">
          <mxGeometry width="50" height="50" relative="1" as="geometry">
            <mxPoint x="180" y="138" as="sourcePoint" />
            <mxPoint x="300" y="210" as="targetPoint" />
          </mxGeometry>
        </mxCell>
      </root>
    </mxGraphModel>
  </diagram>
</mxfile>
